{
  "source": "C:\\Users\\Peter\\Desktop\\stuff\\MIUN\\quantitative_research\\video_compression\\videos\\BVI-HD\\BVI-HD_CDVL_videos\\ORIG\\TreeTrunk_1920x1080_50fps.mp4",
  "output": "C:\\Users\\Peter\\Desktop\\stuff\\MIUN\\quantitative_research\\video_compression\\compressed_videos\\BVI-HD\\av1\\1.5\\TreeTrunk_1920x1080_50fps_av1.mkv",
  "codec": "av1",
  "ok": "Input #0, mov,mp4,m4a,3gp,3g2,mj2, from 'C:\\Users\\Peter\\Desktop\\stuff\\MIUN\\quantitative_research\\video_compression\\videos\\BVI-HD\\BVI-HD_CDVL_videos\\ORIG\\TreeTrunk_1920x1080_50fps.mp4':\n  Metadata:\n    major_brand     : isom\n    minor_version   : 512\n    compatible_brands: isomiso2avc1mp41\n    encoder         : Lavf54.28.101\n  Duration: 00:00:05.00, start: 0.000000, bitrate: 622415 kb/s\n  Stream #0:0[0x1](und): Video: h264 (High 4:4:4 Predictive) (avc1 / 0x31637661), yuv420p(progressive), 1920x1080, 622410 kb/s, 50 fps, 50 tbr, 50 tbn (default)\n    Metadata:\n      handler_name    : VideoHandler\n      vendor_id       : [0][0][0][0]\n[out#0/matroska @ 000001dcee5ff0c0] Codec AVOption b:a (set bitrate (in bits/s)) has not been used for any stream. The most likely reason is either wrong type (e.g. a video option with no video streams) or that it is a private option of some decoder which was not actually used for any stream.\nStream mapping:\n  Stream #0:0 -> #0:0 (h264 (native) -> av1 (libsvtav1))\nPress [q] to stop, [?] for help\nSvt[info]: -------------------------------------------\nSvt[info]: SVT [version]:\tSVT-AV1 Encoder Lib v3.1.0-19-g6ecfe8ec\nSvt[info]: SVT [build]  :\tGCC 15.2.0\t 64 bit\nSvt[info]: LIB Build date: Aug 17 2025 11:37:13\nSvt[info]: -------------------------------------------\nSvt[info]: Level of Parallelism: 5\nSvt[info]: Number of PPCS 93\nSvt[info]: [asm level on system : up to avx2]\nSvt[info]: [asm level selected : up to avx2]\nSvt[info]: -------------------------------------------\nSvt[info]: SVT [config]: main profile\ttier (auto)\tlevel (auto)\nSvt[info]: SVT [config]: width / height / fps numerator / fps denominator \t\t: 1920 / 1080 / 50 / 1\nSvt[info]: SVT [config]: bit-depth / color format \t\t\t\t\t: 8 / YUV420\nSvt[info]: SVT [config]: preset / tune / pred struct \t\t\t\t\t: 4 / PSNR / random access\nSvt[info]: SVT [config]: gop size / mini-gop size / key-frame type \t\t\t: 321 / 16 / key frame\nSvt[info]: SVT [config]: BRC mode / target bitrate (kbps)\t\t\t\t: VBR / 1500 \nSvt[info]: SVT [config]: AQ mode / Variance Boost \t\t\t\t\t: 2 / 0\nSvt[info]: SVT [config]: sharpness / luminance-based QP bias \t\t\t\t: 0 / 0\nSvt[info]: SVT [config]: QP scale compress strength \t\t\t\t\t: 0\nSvt[info]: -------------------------------------------\nOutput #0, matroska, to 'C:\\Users\\Peter\\Desktop\\stuff\\MIUN\\quantitative_research\\video_compression\\compressed_videos\\BVI-HD\\av1\\1.5\\TreeTrunk_1920x1080_50fps_av1.mkv':\n  Metadata:\n    major_brand     : isom\n    minor_version   : 512\n    compatible_brands: isomiso2avc1mp41\n    encoder         : Lavf62.3.100\n  Stream #0:0(und): Video: av1 (AV01 / 0x31305641), yuv420p(tv, progressive), 1920x1080, q=2-31, 1500 kb/s, 50 fps, 1k tbn (default)\n    Metadata:\n      encoder         : Lavc62.11.100 libsvtav1\n      handler_name    : VideoHandler\n      vendor_id       : [0][0][0][0]\n    Side data:\n      cpb: bitrate max/min/avg: 0/0/1500000 buffer size: 1500000 vbv_delay: N/A\nframe=    0 fps=0.0 q=0.0 size=       0KiB time=N/A bitrate=N/A speed=N/A elapsed=0:00:01.88    \nframe=    0 fps=0.0 q=0.0 size=       0KiB time=N/A bitrate=N/A speed=N/A elapsed=0:00:02.64    \nframe=    0 fps=0.0 q=0.0 size=       0KiB time=N/A bitrate=N/A speed=N/A elapsed=0:00:03.35    \nframe=    0 fps=0.0 q=0.0 size=       0KiB time=N/A bitrate=N/A speed=N/A elapsed=0:00:03.90    \nframe=    0 fps=0.0 q=0.0 size=       0KiB time=N/A bitrate=N/A speed=N/A elapsed=0:00:04.73    \nframe=    0 fps=0.0 q=0.0 size=       0KiB time=N/A bitrate=N/A speed=N/A elapsed=0:00:05.37    \nframe=    0 fps=0.0 q=0.0 size=       0KiB time=N/A bitrate=N/A speed=N/A elapsed=0:00:05.93    \nframe=    0 fps=0.0 q=0.0 size=       0KiB time=N/A bitrate=N/A speed=N/A elapsed=0:00:06.51    \nframe=    1 fps=0.1 q=29.0 size=       1KiB time=00:00:00.00 bitrate=N/A speed=   0x elapsed=0:00:07.12    \nframe=    1 fps=0.1 q=29.0 size=       1KiB time=00:00:00.00 bitrate=N/A speed=   0x elapsed=0:00:07.66    \nframe=    3 fps=0.4 q=55.0 size=       1KiB time=00:00:00.00 bitrate=N/A speed=   0x elapsed=0:00:08.21    \nframe=    8 fps=0.9 q=57.0 size=       1KiB time=00:00:00.12 bitrate=  47.5kbits/s speed=0.0136x elapsed=0:00:08.84    \nframe=   13 fps=1.4 q=54.0 size=       1KiB time=00:00:00.24 bitrate=  23.8kbits/s speed=0.0255x elapsed=0:00:09.42    \nframe=   13 fps=1.3 q=54.0 size=       1KiB time=00:00:00.24 bitrate=  23.8kbits/s speed=0.0241x elapsed=0:00:09.97    \nframe=   20 fps=1.9 q=56.0 size=       1KiB time=00:00:00.30 bitrate=  19.0kbits/s speed=0.0285x elapsed=0:00:10.53    \nframe=   29 fps=2.6 q=52.0 size=       1KiB time=00:00:00.50 bitrate=  11.4kbits/s speed=0.0445x elapsed=0:00:11.23    \nframe=   29 fps=2.4 q=52.0 size=       1KiB time=00:00:00.56 bitrate=  10.2kbits/s speed=0.047x elapsed=0:00:11.92    \nframe=   31 fps=2.5 q=55.0 size=       1KiB time=00:00:00.58 bitrate=   9.8kbits/s speed=0.0465x elapsed=0:00:12.48    \nframe=   39 fps=3.0 q=54.0 size=       1KiB time=00:00:00.74 bitrate=   7.7kbits/s speed=0.0565x elapsed=0:00:13.09    \nframe=   45 fps=3.3 q=52.0 size=       1KiB time=00:00:00.86 bitrate=   6.6kbits/s speed=0.0627x elapsed=0:00:13.71    \nframe=   45 fps=3.1 q=52.0 size=       1KiB time=00:00:00.88 bitrate=   6.5kbits/s speed=0.0614x elapsed=0:00:14.32    \nframe=   46 fps=3.1 q=57.0 size=       1KiB time=00:00:00.90 bitrate=   6.3kbits/s speed=0.0605x elapsed=0:00:14.87    \nframe=   54 fps=3.5 q=56.0 size=       1KiB time=00:00:01.06 bitrate=   5.4kbits/s speed=0.0686x elapsed=0:00:15.45    \nframe=   61 fps=3.8 q=52.0 size=       1KiB time=00:00:01.20 bitrate=   4.8kbits/s speed=0.0747x elapsed=0:00:16.06    \nframe=   61 fps=3.7 q=52.0 size=       1KiB time=00:00:01.20 bitrate=   4.8kbits/s speed=0.0721x elapsed=0:00:16.63    \nframe=   61 fps=3.6 q=52.0 size=       1KiB time=00:00:01.20 bitrate=   4.8kbits/s speed=0.07x elapsed=0:00:17.15    \nframe=   67 fps=3.8 q=54.0 size=       1KiB time=00:00:01.30 bitrate=   4.4kbits/s speed=0.0735x elapsed=0:00:17.69    \nframe=   73 fps=4.0 q=45.0 size=       1KiB time=00:00:01.44 bitrate=   4.0kbits/s speed=0.0786x elapsed=0:00:18.31    \nframe=   77 fps=4.1 q=52.0 size=       1KiB time=00:00:01.52 bitrate=   3.8kbits/s speed=0.0803x elapsed=0:00:18.92    \nframe=   77 fps=4.0 q=52.0 size=       1KiB time=00:00:01.52 bitrate=   3.8kbits/s speed=0.0782x elapsed=0:00:19.44    \nframe=   84 fps=4.2 q=56.0 size=       1KiB time=00:00:01.64 bitrate=   3.5kbits/s speed=0.0821x elapsed=0:00:19.98    \nframe=   91 fps=4.4 q=56.0 size=       1KiB time=00:00:01.78 bitrate=   3.2kbits/s speed=0.0865x elapsed=0:00:20.58    \nframe=   93 fps=4.4 q=53.0 size=       1KiB time=00:00:01.84 bitrate=   3.1kbits/s speed=0.0866x elapsed=0:00:21.23    \nframe=   93 fps=4.3 q=53.0 size=       1KiB time=00:00:01.84 bitrate=   3.1kbits/s speed=0.0846x elapsed=0:00:21.75    \nframe=  102 fps=4.6 q=56.0 size=       1KiB time=00:00:01.96 bitrate=   2.9kbits/s speed=0.0877x elapsed=0:00:22.33    \nframe=  109 fps=4.7 q=52.0 size=       1KiB time=00:00:02.14 bitrate=   2.7kbits/s speed=0.0929x elapsed=0:00:23.03    \nframe=  109 fps=4.6 q=52.0 size=       1KiB time=00:00:02.16 bitrate=   2.6kbits/s speed=0.0913x elapsed=0:00:23.65    \nframe=  110 fps=4.5 q=57.0 size=       1KiB time=00:00:02.18 bitrate=   2.6kbits/s speed=0.0901x elapsed=0:00:24.20    \nframe=  119 fps=4.8 q=56.0 size=       1KiB time=00:00:02.36 bitrate=   2.4kbits/s speed=0.0952x elapsed=0:00:24.77    \nframe=  125 fps=4.9 q=52.0 size=       1KiB time=00:00:02.48 bitrate=   2.3kbits/s speed=0.0977x elapsed=0:00:25.39    \nframe=  125 fps=4.8 q=52.0 size=       1KiB time=00:00:02.48 bitrate=   2.3kbits/s speed=0.0955x elapsed=0:00:25.97    \nframe=  135 fps=5.1 q=55.0 size=       1KiB time=00:00:02.66 bitrate=   2.1kbits/s speed= 0.1x elapsed=0:00:26.54    \nframe=  141 fps=5.2 q=52.0 size=       1KiB time=00:00:02.80 bitrate=   2.0kbits/s speed=0.103x elapsed=0:00:27.15    \nframe=  141 fps=5.1 q=52.0 size=       1KiB time=00:00:02.80 bitrate=   2.0kbits/s speed=0.101x elapsed=0:00:27.68    \nframe=  145 fps=5.1 q=33.0 size=       1KiB time=00:00:02.84 bitrate=   2.0kbits/s speed=0.101x elapsed=0:00:28.24    \nframe=  161 fps=5.6 q=33.0 size=       1KiB time=00:00:03.12 bitrate=   1.8kbits/s speed=0.108x elapsed=0:00:28.88    \nframe=  161 fps=5.4 q=33.0 size=       1KiB time=00:00:03.20 bitrate=   1.8kbits/s speed=0.108x elapsed=0:00:29.55    \nframe=  161 fps=5.3 q=33.0 size=       1KiB time=00:00:03.20 bitrate=   1.8kbits/s speed=0.106x elapsed=0:00:30.11    \nframe=  169 fps=5.5 q=47.0 size=       1KiB time=00:00:03.36 bitrate=   1.7kbits/s speed=0.11x elapsed=0:00:30.63    \nframe=  177 fps=5.7 q=34.0 size=       1KiB time=00:00:03.52 bitrate=   1.6kbits/s speed=0.113x elapsed=0:00:31.18    \nframe=  177 fps=5.6 q=34.0 size=       1KiB time=00:00:03.52 bitrate=   1.6kbits/s speed=0.111x elapsed=0:00:31.81    \nframe=  181 fps=5.6 q=53.0 size=       1KiB time=00:00:03.56 bitrate=   1.6kbits/s speed=0.11x elapsed=0:00:32.34    \nframe=  191 fps=5.8 q=56.0 size=       1KiB time=00:00:03.80 bitrate=   1.5kbits/s speed=0.115x elapsed=0:00:32.94    \nframe=  193 fps=5.8 q=35.0 size=       1KiB time=00:00:03.84 bitrate=   1.5kbits/s speed=0.115x elapsed=0:00:33.45    \nframe=  193 fps=5.7 q=35.0 size=       1KiB time=00:00:03.84 bitrate=   1.5kbits/s speed=0.113x elapsed=0:00:33.97    \nframe=  201 fps=5.8 q=48.0 size=       1KiB time=00:00:04.00 bitrate=   1.4kbits/s speed=0.116x elapsed=0:00:34.55    \nframe=  209 fps=6.0 q=36.0 size=       1KiB time=00:00:04.16 bitrate=   1.4kbits/s speed=0.118x elapsed=0:00:35.11    \nframe=  213 fps=6.0 q=53.0 size=       1KiB time=00:00:04.24 bitrate=   1.3kbits/s speed=0.119x elapsed=0:00:35.69    \nframe=  225 fps=6.2 q=36.0 size=       1KiB time=00:00:04.48 bitrate=   1.3kbits/s speed=0.124x elapsed=0:00:36.25    \nframe=  225 fps=6.1 q=36.0 size=       1KiB time=00:00:04.48 bitrate=   1.3kbits/s speed=0.122x elapsed=0:00:36.82    \nframe=  235 fps=6.3 q=57.0 size=       1KiB time=00:00:04.64 bitrate=   1.2kbits/s speed=0.124x elapsed=0:00:37.40    \n[out#0/matroska @ 000001dcee5ff0c0] video:733KiB audio:0KiB subtitle:0KiB other streams:0KiB global headers:0KiB muxing overhead: 0.247242%\nframe=  250 fps=6.6 q=54.0 Lsize=     735KiB time=00:00:04.98 bitrate=1208.2kbits/s speed=0.132x elapsed=0:00:37.79    \n",
  "seconds": 38.610037326812744,
  "probe_out": {}
}